<?xml version="1.0" encoding="UTF-8" standalone="no"?>
<svg
   version="1.1"
   viewBox="0.00 0.00 820.00 820.00"
   id="svg19"
   sodipodi:docname="logo_transparent.svg"
   inkscape:export-filename="logo.png"
   inkscape:export-xdpi="119.88"
   inkscape:export-ydpi="119.88"
   inkscape:version="1.4.2 (ebf0e940, 2025-05-08)"
   xmlns:inkscape="http://www.inkscape.org/namespaces/inkscape"
   xmlns:sodipodi="http://sodipodi.sourceforge.net/DTD/sodipodi-0.dtd"
   xmlns:xlink="http://www.w3.org/1999/xlink"
   xmlns="http://www.w3.org/2000/svg"
   xmlns:svg="http://www.w3.org/2000/svg">
  <defs
     id="defs19">
    <linearGradient
       id="linearGradient28"
       inkscape:collect="always">
      <stop
         style="stop-color:#f2d77d;stop-opacity:1;"
         offset="0"
         id="stop29" />
      <stop
         style="stop-color:#eed377;stop-opacity:1;"
         offset="0.27105153"
         id="stop35" />
      <stop
         style="stop-color:#e8c86f;stop-opacity:1;"
         offset="0.54210305"
         id="stop34" />
      <stop
         style="stop-color:#e2c270;stop-opacity:1;"
         offset="0.7800647"
         id="stop33" />
      <stop
         style="stop-color:#ddbd64;stop-opacity:1;"
         offset="1"
         id="stop30" />
    </linearGradient>
    <linearGradient
       id="linearGradient20"
       inkscape:label="Top">
      <stop
         style="stop-color:#e6bd55;stop-opacity:1;"
         offset="0"
         id="stop22" />
      <stop
         style="stop-color:#e6bd55;stop-opacity:0;"
         offset="1"
         id="stop23" />
    </linearGradient>
    <linearGradient
       id="linearGradient20-1"
       inkscape:label="Bottom">
      <stop
         style="stop-color:#f4d07a;stop-opacity:1;"
         offset="0.09327219"
         id="stop20" />
      <stop
         style="stop-color:#eacc71;stop-opacity:1;"
         offset="0.20496127"
         id="stop27" />
      <stop
         style="stop-color:#e3c86a;stop-opacity:1;"
         offset="0.34755325"
         id="stop25" />
      <stop
         style="stop-color:#dcb85f;stop-opacity:1;"
         offset="0.52404028"
         id="stop26" />
      <stop
         style="stop-color:#d4ac54;stop-opacity:1;"
         offset="0.76197016"
         id="stop28" />
      <stop
         style="stop-color:#d59a20;stop-opacity:1;"
         offset="0.98805493"
         id="stop24" />
    </linearGradient>
    <linearGradient
       inkscape:collect="always"
       xlink:href="#linearGradient20-1"
       id="linearGradient21"
       x1="414.45917"
       y1="279.57159"
       x2="414.45917"
       y2="615.04333"
       gradientUnits="userSpaceOnUse" />
    <linearGradient
       inkscape:collect="always"
       xlink:href="#linearGradient28"
       id="linearGradient30"
       x1="418.3541"
       y1="123.74966"
       x2="418.3541"
       y2="270.09833"
       gradientUnits="userSpaceOnUse" />
  </defs>
  <sodipodi:namedview
     id="namedview19"
     pagecolor="#ffffff"
     bordercolor="#000000"
     borderopacity="0.25"
     inkscape:showpageshadow="2"
     inkscape:pageopacity="0.0"
     inkscape:pagecheckerboard="0"
     inkscape:deskcolor="#d1d1d1"
     inkscape:zoom="0.61840632"
     inkscape:cx="424.4782"
     inkscape:cy="388.09435"
     inkscape:window-width="1312"
     inkscape:window-height="725"
     inkscape:window-x="0"
     inkscape:window-y="24"
     inkscape:window-maximized="0"
     inkscape:current-layer="svg19" />
  <g
     id="g47"
     transform="matrix(1.573,0,0,1.573,-248.07101,-174.4741)">
    <path
       fill="#e6bd55"
       d="m 307.06,202.32 c 0.25,0.02 0.46,-0.18 0.44,-0.43 -0.72,-11.41 2.16,-21.09 8.65,-29.03 10.97,-13.43 26.37,-18.31 43.7,-14.72 5.5,1.14 10.51,3.5 15.04,7.09 0.19,0.15 0.48,0.09 0.59,-0.12 7.48,-13.83 18.42,-24.12 32.83,-30.87 24.33,-11.41 51.93,-8.67 73.99,6.28 3.39,2.29 7.02,5.4 10.87,9.31 7.72,7.83 12.26,16.31 15.75,26.35 0.14,0.41 0.57,0.64 0.99,0.55 13.44,-2.84 26.21,-2.26 37.92,4.34 18.11,10.19 26.76,29.36 23.94,49.78 -1.97,14.27 -9.37,25.19 -22.2,32.76 -7.43,4.39 -14.98,6.45 -23.81,6.3 -4.74,-0.09 -10.04,0.34 -15.35,0.32 -59.89,-0.19 -116.28,-0.2 -169.17,-0.01 -13.68,0.05 -30.45,-0.24 -47.99,-0.25 -4.08,0 -10.13,-2.35 -13.8,-4.99 -11.19,-8.06 -16.47,-20.19 -14.7,-33.7 1.2,-9.14 5.98,-16.92 14.34,-23.33 8.52,-6.53 17.7,-6.58 27.97,-5.63 z"
       id="path2"
       style="fill:url(#linearGradient30)" />
    <path
       d="m 504.78,397.28 c 0.19,0.02 0.28,0.23 0.17,0.38 -10.7,14.43 -19.5,27.89 -29.3,41.14 -19.2,25.98 -35.6,49.6 -53.87,74.29 -13.32,18 -34.48,48.17 -52.19,72.43 -6.43,8.81 -12.42,17.45 -17.99,25.94 -0.08,0.13 -0.25,0.17 -0.39,0.1 l -0.02,-0.01 c -0.16,-0.09 -0.22,-0.29 -0.14,-0.45 1,-2.07 1.67,-3.67 2.01,-4.82 7.2,-24.05 15.71,-48.11 22.98,-70.96 2.26,-7.07 5.55,-15.29 7.84,-22.44 4.81,-15.01 9.33,-28.48 13.55,-40.41 1.49,-4.2 2.95,-8.68 4.37,-13.44 0.25,-0.85 0.62,-1.69 1.1,-2.51 0.3,-0.52 -0.08,-1.18 -0.68,-1.18 h -72.49 c -0.41,0 -0.7,-0.4 -0.57,-0.79 3.78,-11.09 7.89,-24.15 12.33,-39.19 4.95,-16.77 10.36,-33.1 15.49,-51.13 4.94,-17.38 10.22,-32.86 15.35,-51.05 0.06,-0.21 -0.09,-0.42 -0.31,-0.42 h -97 c -0.41,0 -0.7,-0.4 -0.57,-0.79 l 8.47,-25.72 c 0.1,-0.3 0.37,-0.51 0.69,-0.51 h 273.12 c 0.36,0 0.6,0.35 0.48,0.69 l -9.15,25.5 c -0.09,0.25 -0.33,0.42 -0.6,0.42 h -78.32 c -0.22,0 -0.43,0.13 -0.53,0.33 l -41.83,82.95 c -0.25,0.49 0.1,1.08 0.66,1.09 22.11,0.31 44.54,0.34 67.31,0.11 3.47,-0.03 6.81,0.12 10.03,0.45 z"
       id="path3"
       style="fill:url(#linearGradient21);fill-opacity:1" />
  </g>
</svg>
