<?xml version="1.0" encoding="UTF-8" standalone="no"?>
<svg
   version="1.1"
   viewBox="0.00 0.00 820.00 820.00"
   id="svg19"
   sodipodi:docname="logo_with_text_transparent.svg"
   inkscape:export-filename="logo.png"
   inkscape:export-xdpi="119.88"
   inkscape:export-ydpi="119.88"
   inkscape:version="1.4.2 (ebf0e940, 2025-05-08)"
   xmlns:inkscape="http://www.inkscape.org/namespaces/inkscape"
   xmlns:sodipodi="http://sodipodi.sourceforge.net/DTD/sodipodi-0.dtd"
   xmlns:xlink="http://www.w3.org/1999/xlink"
   xmlns="http://www.w3.org/2000/svg"
   xmlns:svg="http://www.w3.org/2000/svg">
  <defs
     id="defs19">
    <linearGradient
       id="linearGradient41"
       inkscape:collect="always">
      <stop
         style="stop-color:#e7ca7d;stop-opacity:1;"
         offset="0"
         id="stop42" />
      <stop
         style="stop-color:#e0c070;stop-opacity:1;"
         offset="0.5"
         id="stop44" />
      <stop
         style="stop-color:#cea956;stop-opacity:1;"
         offset="1"
         id="stop43" />
    </linearGradient>
    <linearGradient
       id="linearGradient38"
       inkscape:collect="always">
      <stop
         style="stop-color:#e7ca7d;stop-opacity:1;"
         offset="0"
         id="stop39" />
      <stop
         style="stop-color:#e0c070;stop-opacity:1;"
         offset="0.50091547"
         id="stop41" />
      <stop
         style="stop-color:#cea956;stop-opacity:1;"
         offset="1"
         id="stop40" />
    </linearGradient>
    <linearGradient
       id="linearGradient35"
       inkscape:collect="always">
      <stop
         style="stop-color:#e7ca7d;stop-opacity:1;"
         offset="0.0001"
         id="stop36" />
      <stop
         style="stop-color:#e0c070;stop-opacity:1;"
         offset="0.49094743"
         id="stop38" />
      <stop
         style="stop-color:#cea956;stop-opacity:1;"
         offset="0.99362838"
         id="stop37" />
    </linearGradient>
    <linearGradient
       id="linearGradient28"
       inkscape:collect="always">
      <stop
         style="stop-color:#f2d77d;stop-opacity:1;"
         offset="0"
         id="stop29" />
      <stop
         style="stop-color:#eed377;stop-opacity:1;"
         offset="0.27105153"
         id="stop35" />
      <stop
         style="stop-color:#e8c86f;stop-opacity:1;"
         offset="0.54210305"
         id="stop34" />
      <stop
         style="stop-color:#e2c270;stop-opacity:1;"
         offset="0.7800647"
         id="stop33" />
      <stop
         style="stop-color:#ddbd64;stop-opacity:1;"
         offset="1"
         id="stop30" />
    </linearGradient>
    <linearGradient
       id="linearGradient20"
       inkscape:label="Top">
      <stop
         style="stop-color:#e6bd55;stop-opacity:1;"
         offset="0"
         id="stop22" />
      <stop
         style="stop-color:#e6bd55;stop-opacity:0;"
         offset="1"
         id="stop23" />
    </linearGradient>
    <linearGradient
       id="linearGradient20-1"
       inkscape:label="Bottom">
      <stop
         style="stop-color:#f4d07a;stop-opacity:1;"
         offset="0.09327219"
         id="stop20" />
      <stop
         style="stop-color:#eacc71;stop-opacity:1;"
         offset="0.20496127"
         id="stop27" />
      <stop
         style="stop-color:#e3c86a;stop-opacity:1;"
         offset="0.34755325"
         id="stop25" />
      <stop
         style="stop-color:#dcb85f;stop-opacity:1;"
         offset="0.52404028"
         id="stop26" />
      <stop
         style="stop-color:#d4ac54;stop-opacity:1;"
         offset="0.76197016"
         id="stop28" />
      <stop
         style="stop-color:#d59a20;stop-opacity:1;"
         offset="0.98805493"
         id="stop24" />
    </linearGradient>
    <linearGradient
       inkscape:collect="always"
       xlink:href="#linearGradient20-1"
       id="linearGradient21"
       x1="414.45917"
       y1="279.57159"
       x2="414.45917"
       y2="615.04333"
       gradientUnits="userSpaceOnUse" />
    <linearGradient
       inkscape:collect="always"
       xlink:href="#linearGradient28"
       id="linearGradient30"
       x1="418.3541"
       y1="123.74966"
       x2="418.3541"
       y2="270.09833"
       gradientUnits="userSpaceOnUse" />
    <linearGradient
       inkscape:collect="always"
       xlink:href="#linearGradient35"
       id="linearGradient37"
       x1="72.146088"
       y1="674.46631"
       x2="72.146088"
       y2="727.84973"
       gradientUnits="userSpaceOnUse"
       gradientTransform="translate(-2.2930954)" />
    <linearGradient
       inkscape:collect="always"
       xlink:href="#linearGradient38"
       id="linearGradient40"
       x1="477.38416"
       y1="670.27539"
       x2="477.38416"
       y2="729.19373"
       gradientUnits="userSpaceOnUse"
       gradientTransform="translate(-2.2930954)" />
    <linearGradient
       inkscape:collect="always"
       xlink:href="#linearGradient41"
       id="linearGradient43"
       x1="751.02307"
       y1="672.78534"
       x2="751.02307"
       y2="729.03131"
       gradientUnits="userSpaceOnUse"
       gradientTransform="translate(-2.2930954)" />
  </defs>
  <sodipodi:namedview
     id="namedview19"
     pagecolor="#ffffff"
     bordercolor="#000000"
     borderopacity="0.25"
     inkscape:showpageshadow="2"
     inkscape:pageopacity="0.0"
     inkscape:pagecheckerboard="0"
     inkscape:deskcolor="#d1d1d1"
     inkscape:zoom="0.72027527"
     inkscape:cx="372.77415"
     inkscape:cy="408.17728"
     inkscape:window-width="1312"
     inkscape:window-height="725"
     inkscape:window-x="0"
     inkscape:window-y="24"
     inkscape:window-maximized="0"
     inkscape:current-layer="svg19" />
  <g
     id="g47"
     transform="translate(-8.3541047)">
    <path
       fill="#e6bd55"
       d="m 307.06,202.32 c 0.25,0.02 0.46,-0.18 0.44,-0.43 -0.72,-11.41 2.16,-21.09 8.65,-29.03 10.97,-13.43 26.37,-18.31 43.7,-14.72 5.5,1.14 10.51,3.5 15.04,7.09 0.19,0.15 0.48,0.09 0.59,-0.12 7.48,-13.83 18.42,-24.12 32.83,-30.87 24.33,-11.41 51.93,-8.67 73.99,6.28 3.39,2.29 7.02,5.4 10.87,9.31 7.72,7.83 12.26,16.31 15.75,26.35 0.14,0.41 0.57,0.64 0.99,0.55 13.44,-2.84 26.21,-2.26 37.92,4.34 18.11,10.19 26.76,29.36 23.94,49.78 -1.97,14.27 -9.37,25.19 -22.2,32.76 -7.43,4.39 -14.98,6.45 -23.81,6.3 -4.74,-0.09 -10.04,0.34 -15.35,0.32 -59.89,-0.19 -116.28,-0.2 -169.17,-0.01 -13.68,0.05 -30.45,-0.24 -47.99,-0.25 -4.08,0 -10.13,-2.35 -13.8,-4.99 -11.19,-8.06 -16.47,-20.19 -14.7,-33.7 1.2,-9.14 5.98,-16.92 14.34,-23.33 8.52,-6.53 17.7,-6.58 27.97,-5.63 z"
       id="path2"
       style="fill:url(#linearGradient30)" />
    <path
       d="m 504.78,397.28 c 0.19,0.02 0.28,0.23 0.17,0.38 -10.7,14.43 -19.5,27.89 -29.3,41.14 -19.2,25.98 -35.6,49.6 -53.87,74.29 -13.32,18 -34.48,48.17 -52.19,72.43 -6.43,8.81 -12.42,17.45 -17.99,25.94 -0.08,0.13 -0.25,0.17 -0.39,0.1 l -0.02,-0.01 c -0.16,-0.09 -0.22,-0.29 -0.14,-0.45 1,-2.07 1.67,-3.67 2.01,-4.82 7.2,-24.05 15.71,-48.11 22.98,-70.96 2.26,-7.07 5.55,-15.29 7.84,-22.44 4.81,-15.01 9.33,-28.48 13.55,-40.41 1.49,-4.2 2.95,-8.68 4.37,-13.44 0.25,-0.85 0.62,-1.69 1.1,-2.51 0.3,-0.52 -0.08,-1.18 -0.68,-1.18 h -72.49 c -0.41,0 -0.7,-0.4 -0.57,-0.79 3.78,-11.09 7.89,-24.15 12.33,-39.19 4.95,-16.77 10.36,-33.1 15.49,-51.13 4.94,-17.38 10.22,-32.86 15.35,-51.05 0.06,-0.21 -0.09,-0.42 -0.31,-0.42 h -97 c -0.41,0 -0.7,-0.4 -0.57,-0.79 l 8.47,-25.72 c 0.1,-0.3 0.37,-0.51 0.69,-0.51 h 273.12 c 0.36,0 0.6,0.35 0.48,0.69 l -9.15,25.5 c -0.09,0.25 -0.33,0.42 -0.6,0.42 h -78.32 c -0.22,0 -0.43,0.13 -0.53,0.33 l -41.83,82.95 c -0.25,0.49 0.1,1.08 0.66,1.09 22.11,0.31 44.54,0.34 67.31,0.11 3.47,-0.03 6.81,0.12 10.03,0.45 z"
       id="path3"
       style="fill:url(#linearGradient21);fill-opacity:1" />
  </g>
  <path
     fill="#e6bd55"
     d="m 772.5269,728.13 c 0.06,0.07 0.01,0.17 -0.08,0.17 h -10.9 c -0.2,0 -0.39,-0.1 -0.5,-0.26 -5.53,-7.89 -11.57,-15.62 -18.1,-23.19 -0.17,-0.19 -0.46,-0.2 -0.64,-0.01 l -7.93,8.37 c -0.5,0.53 -0.78,1.23 -0.78,1.96 v 12.48 c 0,0.36 -0.29,0.65 -0.65,0.65 h -7.53 c -0.28,0 -0.51,-0.23 -0.51,-0.51 v -52.5 c 0,-0.66 0.54,-1.2 1.21,-1.2 h 6.56 c 0.62,0 1.12,0.5 1.12,1.12 v 27.26 c 0,0.23 0.28,0.33 0.43,0.17 l 26.23,-27.7 c 0.22,-0.23 0.52,-0.36 0.84,-0.36 h 9.89 c 0.2,0 0.3,0.24 0.16,0.39 l -21.87,23.09 c -0.07,0.07 -0.07,0.19 -0.01,0.27 z"
     id="path4"
     style="fill:url(#linearGradient43)" />
  <path
     fill="#dedede"
     d="m 124.0669,697.42 c 8.88,0 13.53,0 13.95,0 0.39,0 0.71,-0.32 0.71,-0.71 v -21.63 c 0,-0.31 0.26,-0.56 0.56,-0.56 h 7.38 c 0.41,0 0.74,0.32 0.74,0.73 0.04,12.02 0.06,20.75 0.06,26.18 0,5.43 -0.02,14.16 -0.06,26.18 0,0.41 -0.33,0.74 -0.73,0.74 h -7.38 c -0.31,0 -0.56,-0.25 -0.56,-0.56 v -21.63 c 0,-0.4 -0.32,-0.71 -0.72,-0.72 -0.42,0 -5.07,0 -13.95,0 -8.88,0 -13.53,0.01 -13.94,0.01 -0.4,0 -0.72,0.32 -0.72,0.71 v 21.63 c 0,0.31 -0.25,0.56 -0.56,0.56 h -7.38 c -0.4,0 -0.73,-0.33 -0.73,-0.73 -0.05,-12.02 -0.07,-20.75 -0.07,-26.18 0,-5.44 0.02,-14.16 0.06,-26.19 0,-0.4 0.33,-0.73 0.73,-0.73 h 7.38 c 0.31,0 0.56,0.25 0.56,0.56 l 0.01,21.63 c 0,0.39 0.32,0.71 0.72,0.72 0.41,0 5.06,-0.01 13.94,-0.01 z"
     id="path5" />
  <path
     fill="#e6bd55"
     d="m 491.2069,685.81 c -0.24,0.47 -0.86,0.6 -1.27,0.27 -3.92,-3.18 -8.99,-4.54 -15.22,-4.08 -3.98,0.3 -9.28,1.99 -9.99,6.23 -0.83,4.99 3.07,7.01 7.42,8.36 4.79,1.5 12.4,2.57 17.94,5.96 5.55,3.41 7.54,10 5.59,15.99 -1.2,3.69 -3.88,6.36 -8.04,8.01 -11.55,4.59 -22.79,3.38 -33.71,-3.63 -0.14,-0.1 -0.19,-0.28 -0.12,-0.44 l 3.36,-6.65 c 0.08,-0.16 0.28,-0.2 0.42,-0.1 6.65,4.91 13.75,6.84 21.32,5.81 9.31,-1.28 11.58,-10.93 1.5,-13.76 -6.6,-1.86 -11.2,-3.17 -13.8,-3.93 -7.34,-2.14 -12.87,-8.2 -11.26,-15.98 2.13,-10.25 12.2,-13.73 21.91,-13.6 6.1,0.08 11.52,1.6 16.27,4.55 0.52,0.32 0.71,0.99 0.43,1.54 z"
     id="path6"
     style="fill:url(#linearGradient40)" />
  <path
     fill="#dedede"
     d="m 631.5769,729.36 c -9.68,0.03 -17.59,-4.17 -21.4,-12.65 -1.37,-3.05 -2.06,-8.28 -2.06,-15.68 0,-10.29 0.02,-18.93 0.06,-25.94 0,-0.35 0.29,-0.64 0.64,-0.64 h 7.85 c 0.28,0 0.51,0.23 0.51,0.51 0.04,15.29 0.07,25.09 0.08,29.38 0.01,3.65 0.35,6.37 1.02,8.18 2.17,5.92 7.04,9.02 13.28,9.01 6.24,-0.02 11.11,-3.14 13.25,-9.07 0.66,-1.81 0.98,-4.54 0.98,-8.18 0,-4.3 -0.02,-14.09 -0.05,-29.38 0,-0.29 0.23,-0.51 0.51,-0.52 l 7.85,-0.03 c 0.35,0 0.64,0.28 0.64,0.64 0.07,7 0.13,15.65 0.18,25.94 0.03,7.4 -0.63,12.63 -1.99,15.69 -3.78,8.49 -11.67,12.72 -21.35,12.74 z"
     id="path7" />
  <path
     fill="#dedede"
     d="m 714.5069,682.77 c 0.08,0.08 0.08,0.21 0,0.29 l -4.76,5.03 c -0.2,0.21 -0.52,0.22 -0.73,0.04 -7.8,-6.69 -15.71,-8.03 -23.72,-4.04 -2.89,1.45 -5.11,3.08 -6.64,4.91 -3.93,4.68 -4.7,12.73 -3.26,18.27 1.25,4.81 4.02,8.43 8.3,10.85 9.05,5.12 17.18,4.23 24.41,-2.66 0.41,-0.39 1.06,-0.39 1.47,0 l 4,3.78 c 0.52,0.49 0.57,1.3 0.12,1.86 -2.51,3.15 -5.72,5.32 -9.63,6.53 -17.43,5.36 -37.3,-3.84 -38.63,-23.93 -0.98,-14.88 10.35,-27.94 25.13,-29.25 9.47,-0.83 17.46,1.46 23.94,8.32 z"
     id="path8" />
  <path
     fill="#e6bd55"
     d="m 70.146905,728.16 c -0.61,0 -1.74,0.06 -3.4,0.19 -0.64,0.04 -1.18,-0.46 -1.18,-1.1 v -43.99 c 0,-0.5 -0.4,-0.9 -0.9,-0.9 h -16.6 c -0.34,0 -0.62,-0.28 -0.62,-0.62 v -6.26 c 0,-0.34 0.28,-0.62 0.61,-0.62 13.79,0.01 21.12,0.02 21.99,0.02 0.87,0 8.2,-0.04 21.99,-0.1 0.33,0 0.61,0.27 0.61,0.62 l 0.02,6.26 c 0.01,0.34 -0.27,0.62 -0.61,0.62 l -16.6,0.06 c -0.5,0 -0.9,0.41 -0.9,0.9 l 0.16,43.99 c 0,0.64 -0.53,1.15 -1.17,1.1 -1.66,-0.11 -2.8,-0.17 -3.4,-0.17 z"
     id="path9"
     style="fill:url(#linearGradient37)" />
  <path
     fill="#dedede"
     d="m 185.8069,721.54 c 6.21,0 11.06,-3.1 13.21,-9 0.65,-1.8 0.99,-4.51 0.99,-8.14 0,-4.27 0.01,-14.02 0.01,-29.24 0,-0.28 0.23,-0.51 0.51,-0.51 l 7.81,-0.02 c 0.35,0 0.64,0.29 0.64,0.64 0.06,6.97 0.1,15.58 0.12,25.82 0.02,7.36 -0.66,12.56 -2.02,15.61 -3.77,8.44 -11.63,12.64 -21.26,12.64 -9.64,0 -17.5,-4.2 -21.28,-12.64 -1.36,-3.04 -2.03,-8.25 -2.01,-15.61 0.02,-10.24 0.06,-18.84 0.11,-25.82 0,-0.35 0.29,-0.63 0.64,-0.63 l 7.81,0.02 c 0.28,0 0.51,0.22 0.51,0.5 0.01,15.22 0.01,24.97 0.02,29.24 0,3.63 0.33,6.35 0.99,8.15 2.15,5.89 7,8.99 13.2,8.99 z"
     id="path10" />
  <path
     fill="#dedede"
     d="m 224.5669,674.79 h 5.9 c 0.54,0 1.05,0.25 1.39,0.67 l 29.47,36.48 c 0.19,0.24 0.58,0.11 0.58,-0.2 v -36.11 c 0,-0.64 0.51,-1.15 1.15,-1.15 h 6.7 c 0.66,0 1.19,0.53 1.19,1.19 v 52.42 c 0,0.28 -0.22,0.5 -0.5,0.5 h -6.46 c -0.34,0 -0.66,-0.15 -0.87,-0.41 l -29.51,-36.53 c -0.01,-0.01 -0.02,-0.01 -0.03,0 -0.02,0 -0.02,0.02 -0.01,0.03 0.06,0.09 -0.02,0.02 -0.25,-0.21 -0.12,-0.12 -0.32,-0.04 -0.32,0.13 v 36.36 c 0,0.11 -0.09,0.2 -0.2,0.2 h -8.46 c -0.22,0 -0.39,-0.17 -0.39,-0.38 v -52.36 c 0,-0.35 0.28,-0.63 0.62,-0.63 z"
     id="path11" />
  <path
     fill="#dedede"
     d="m 359.6069,720.92 h 29.63 c 0.38,0 0.69,0.31 0.69,0.69 v 6.21 c 0,0.38 -0.31,0.69 -0.69,0.69 h -38.58 c -0.38,0 -0.69,-0.31 -0.69,-0.69 v -52.34 c 0,-0.38 0.31,-0.69 0.69,-0.69 h 37.42 c 0.38,0 0.69,0.31 0.69,0.69 v 6.08 c 0,0.38 -0.31,0.69 -0.69,0.69 h -28.24 c -0.38,0 -0.69,0.31 -0.69,0.69 v 13.84 c 0,0.38 0.31,0.69 0.69,0.69 h 25.33 c 0.38,0 0.69,0.31 0.69,0.69 v 6.25 c 0,0.38 -0.31,0.69 -0.69,0.69 h -25.56 c -0.38,0 -0.69,0.31 -0.69,0.69 v 14.44 c 0,0.38 0.31,0.69 0.69,0.69 z"
     id="path13" />
  <path
     fill="#dedede"
     d="m 521.5069,674.75 c 7.35,0.02 14.65,-0.01 21.89,-0.08 0.55,-0.01 0.99,0.43 0.99,0.98 v 5.79 c 0,0.53 -0.43,0.96 -0.96,0.96 h -16.44 c -0.4,0 -0.73,0.32 -0.73,0.72 l -0.06,44.76 c 0,0.18 -0.13,0.33 -0.31,0.36 -0.21,0.03 -1.59,0.06 -4.14,0.07 -2.55,0.01 -3.93,0 -4.13,-0.03 -0.18,-0.03 -0.32,-0.18 -0.32,-0.36 l -0.47,-44.76 c 0,-0.39 -0.33,-0.71 -0.74,-0.71 l -16.43,0.15 c -0.53,0.01 -0.97,-0.42 -0.97,-0.95 l -0.06,-5.79 c 0,-0.55 0.44,-0.99 0.99,-0.99 7.24,0.01 14.53,-0.03 21.89,-0.12 z"
     id="path15" />
  <path
     id="path16"
     d="M 553.04688 674.84961 C 552.64687 674.86961 552.32617 675.18984 552.32617 675.58984 L 552.32617 727.93945 C 552.32617 728.10945 552.45695 728.24023 552.62695 728.24023 L 561.24609 728.24023 C 561.41609 728.24023 561.54688 728.10922 561.54688 727.94922 L 561.54688 712.58984 C 561.54687 712.25984 561.80672 712 562.13672 712 L 575.20703 712 C 576.04703 712 576.83664 712.42086 577.30664 713.13086 L 587.38672 728.41016 C 587.45672 728.53016 587.59633 728.59961 587.73633 728.59961 L 597.52734 728.59961 C 597.60734 728.59961 597.65742 728.50945 597.60742 728.43945 L 585.56641 711.33008 C 585.26641 710.90008 585.45703 710.28937 585.95703 710.10938 L 587.74609 709.4707 C 588.01609 709.3707 588.25633 709.24031 588.48633 709.07031 C 593.66633 705.20031 596.35641 700.20031 596.56641 694.07031 C 596.95641 682.23031 587.65773 675.36992 576.67773 674.91992 C 569.29773 674.61992 561.41688 674.59961 553.04688 674.84961 z M 562.22656 682.33008 L 575.22656 682.33008 C 582.07656 682.33008 587.62695 687.0093 587.62695 692.7793 L 587.62695 694.09961 C 587.62695 699.86961 582.07656 704.55078 575.22656 704.55078 L 562.22656 704.55078 C 561.88656 704.55078 561.60742 704.26969 561.60742 703.92969 L 561.60742 682.94922 C 561.60742 682.60922 561.88656 682.33008 562.22656 682.33008 z "
     style="fill:#dedede;fill-opacity:1" />
  <path
     id="path12"
     d="M 286.68164 674.88086 C 286.5531 674.89456 286.44727 675.00937 286.44727 675.14062 L 286.26758 728.09961 C 286.26758 728.23961 286.37734 728.35938 286.52734 728.35938 L 310.78711 728.43945 C 326.13711 728.49945 338.62773 716.69055 338.67773 702.06055 L 338.67773 701.53906 C 338.72773 686.91906 326.3268 675.02094 310.9668 674.96094 L 286.70703 674.88086 C 286.69828 674.88086 286.69021 674.87995 286.68164 674.88086 z M 296.26758 682.59961 L 310.09766 682.68945 C 320.84766 682.76945 329.49773 691.36063 329.42773 701.89062 L 329.42773 702.07031 C 329.35773 712.60031 320.57594 721.07023 309.83594 720.99023 L 296.00781 720.90039 C 295.57781 720.89039 295.23633 720.54914 295.23633 720.11914 L 295.49609 683.35938 C 295.49609 682.93938 295.84758 682.58961 296.26758 682.59961 z "
     style="fill:#dedede;fill-opacity:1" />
  <path
     id="path14"
     d="M 426.65625 674.86914 C 420.87625 674.73914 412.85766 674.75992 402.59766 674.91992 C 402.30766 674.92992 402.06641 675.17094 402.06641 675.46094 L 402.06641 727.98047 C 402.06641 728.16047 402.20695 728.30078 402.37695 728.30078 L 410.61719 728.30078 C 410.80719 728.30078 410.9668 728.13922 410.9668 727.94922 L 410.9668 712.9707 C 410.9668 712.4707 411.36719 712.07031 411.86719 712.07031 L 424.84766 712.07031 C 425.22766 712.07031 425.58664 712.26031 425.80664 712.57031 L 436.85742 728.2793 C 436.95742 728.4193 437.11711 728.5 437.28711 728.5 L 446.87695 728.5 C 446.96695 728.5 447.0168 728.40008 446.9668 728.33008 L 435.57617 712.15039 C 435.20617 711.62039 435.35602 710.89055 435.91602 710.56055 C 443.08602 706.27055 446.36734 699.89969 445.77734 691.42969 C 445.37734 685.67969 442.21781 680.73922 437.25781 678.19922 C 433.04781 676.03922 429.50625 674.92914 426.65625 674.86914 z M 425.31641 682.41992 C 431.69641 682.37992 436.8975 687.2107 436.9375 693.2207 L 436.9375 693.82031 C 436.9775 699.83031 431.84656 704.7293 425.47656 704.7793 L 411.89648 704.86914 C 411.31648 704.87914 410.85766 704.41984 410.84766 703.83984 L 410.70703 683.56055 C 410.70703 682.99055 411.16633 682.51977 411.73633 682.50977 L 425.31641 682.41992 z "
     style="fill:#dedede;fill-opacity:1" />
</svg>
