<?xml version="1.0" encoding="UTF-8" standalone="no"?>
<svg
   version="1.1"
   viewBox="0.00 0.00 820.00 820.00"
   id="svg19"
   sodipodi:docname="logo.svg"
   inkscape:export-filename="logo.png"
   inkscape:export-xdpi="119.88"
   inkscape:export-ydpi="119.88"
   inkscape:version="1.4.2 (ebf0e940, 2025-05-08)"
   xmlns:inkscape="http://www.inkscape.org/namespaces/inkscape"
   xmlns:sodipodi="http://sodipodi.sourceforge.net/DTD/sodipodi-0.dtd"
   xmlns:xlink="http://www.w3.org/1999/xlink"
   xmlns="http://www.w3.org/2000/svg"
   xmlns:svg="http://www.w3.org/2000/svg">
  <defs
     id="defs19">
    <linearGradient
       id="linearGradient41"
       inkscape:collect="always">
      <stop
         style="stop-color:#e7ca7d;stop-opacity:1;"
         offset="0"
         id="stop42" />
      <stop
         style="stop-color:#e0c070;stop-opacity:1;"
         offset="0.5"
         id="stop44" />
      <stop
         style="stop-color:#cea956;stop-opacity:1;"
         offset="1"
         id="stop43" />
    </linearGradient>
    <linearGradient
       id="linearGradient38"
       inkscape:collect="always">
      <stop
         style="stop-color:#e7ca7d;stop-opacity:1;"
         offset="0"
         id="stop39" />
      <stop
         style="stop-color:#e0c070;stop-opacity:1;"
         offset="0.50091547"
         id="stop41" />
      <stop
         style="stop-color:#cea956;stop-opacity:1;"
         offset="1"
         id="stop40" />
    </linearGradient>
    <linearGradient
       id="linearGradient35"
       inkscape:collect="always">
      <stop
         style="stop-color:#e7ca7d;stop-opacity:1;"
         offset="0.0001"
         id="stop36" />
      <stop
         style="stop-color:#e0c070;stop-opacity:1;"
         offset="0.49094743"
         id="stop38" />
      <stop
         style="stop-color:#cea956;stop-opacity:1;"
         offset="0.99362838"
         id="stop37" />
    </linearGradient>
    <linearGradient
       id="linearGradient28"
       inkscape:collect="always">
      <stop
         style="stop-color:#f2d77d;stop-opacity:1;"
         offset="0"
         id="stop29" />
      <stop
         style="stop-color:#eed377;stop-opacity:1;"
         offset="0.27105153"
         id="stop35" />
      <stop
         style="stop-color:#e8c86f;stop-opacity:1;"
         offset="0.54210305"
         id="stop34" />
      <stop
         style="stop-color:#e2c270;stop-opacity:1;"
         offset="0.7800647"
         id="stop33" />
      <stop
         style="stop-color:#ddbd64;stop-opacity:1;"
         offset="1"
         id="stop30" />
    </linearGradient>
    <linearGradient
       id="linearGradient20"
       inkscape:label="Top">
      <stop
         style="stop-color:#e6bd55;stop-opacity:1;"
         offset="0"
         id="stop22" />
      <stop
         style="stop-color:#e6bd55;stop-opacity:0;"
         offset="1"
         id="stop23" />
    </linearGradient>
    <linearGradient
       id="linearGradient20-1"
       inkscape:label="Bottom">
      <stop
         style="stop-color:#f4d07a;stop-opacity:1;"
         offset="0.09327219"
         id="stop20" />
      <stop
         style="stop-color:#eacc71;stop-opacity:1;"
         offset="0.20496127"
         id="stop27" />
      <stop
         style="stop-color:#e3c86a;stop-opacity:1;"
         offset="0.34755325"
         id="stop25" />
      <stop
         style="stop-color:#dcb85f;stop-opacity:1;"
         offset="0.52404028"
         id="stop26" />
      <stop
         style="stop-color:#d4ac54;stop-opacity:1;"
         offset="0.76197016"
         id="stop28" />
      <stop
         style="stop-color:#d59a20;stop-opacity:1;"
         offset="0.98805493"
         id="stop24" />
    </linearGradient>
    <linearGradient
       inkscape:collect="always"
       xlink:href="#linearGradient20-1"
       id="linearGradient21"
       x1="414.45917"
       y1="279.57159"
       x2="414.45917"
       y2="615.04333"
       gradientUnits="userSpaceOnUse" />
    <linearGradient
       inkscape:collect="always"
       xlink:href="#linearGradient28"
       id="linearGradient30"
       x1="418.3541"
       y1="123.74966"
       x2="418.3541"
       y2="270.09833"
       gradientUnits="userSpaceOnUse" />
    <linearGradient
       inkscape:collect="always"
       xlink:href="#linearGradient35"
       id="linearGradient37"
       x1="72.146088"
       y1="674.46631"
       x2="72.146088"
       y2="727.84973"
       gradientUnits="userSpaceOnUse" />
    <linearGradient
       inkscape:collect="always"
       xlink:href="#linearGradient38"
       id="linearGradient40"
       x1="477.38416"
       y1="670.27539"
       x2="477.38416"
       y2="729.19373"
       gradientUnits="userSpaceOnUse" />
    <linearGradient
       inkscape:collect="always"
       xlink:href="#linearGradient41"
       id="linearGradient43"
       x1="751.02307"
       y1="672.78534"
       x2="751.02307"
       y2="729.03131"
       gradientUnits="userSpaceOnUse" />
  </defs>
  <sodipodi:namedview
     id="namedview19"
     pagecolor="#ffffff"
     bordercolor="#000000"
     borderopacity="0.25"
     inkscape:showpageshadow="2"
     inkscape:pageopacity="0.0"
     inkscape:pagecheckerboard="0"
     inkscape:deskcolor="#d1d1d1"
     inkscape:zoom="0.8540537"
     inkscape:cx="340.72799"
     inkscape:cy="481.23438"
     inkscape:window-width="1312"
     inkscape:window-height="725"
     inkscape:window-x="0"
     inkscape:window-y="24"
     inkscape:window-maximized="0"
     inkscape:current-layer="svg19" />
  <path
     fill="#1d2239"
     d="   M 820.00 0.00   L 820.00 820.00   L 0.00 820.00   L 0.00 0.00   L 820.00 0.00   Z"
     id="path1" />
  <g
     id="g47"
     transform="translate(-8.3541047)">
    <path
       fill="#e6bd55"
       d="m 307.06,202.32 c 0.25,0.02 0.46,-0.18 0.44,-0.43 -0.72,-11.41 2.16,-21.09 8.65,-29.03 10.97,-13.43 26.37,-18.31 43.7,-14.72 5.5,1.14 10.51,3.5 15.04,7.09 0.19,0.15 0.48,0.09 0.59,-0.12 7.48,-13.83 18.42,-24.12 32.83,-30.87 24.33,-11.41 51.93,-8.67 73.99,6.28 3.39,2.29 7.02,5.4 10.87,9.31 7.72,7.83 12.26,16.31 15.75,26.35 0.14,0.41 0.57,0.64 0.99,0.55 13.44,-2.84 26.21,-2.26 37.92,4.34 18.11,10.19 26.76,29.36 23.94,49.78 -1.97,14.27 -9.37,25.19 -22.2,32.76 -7.43,4.39 -14.98,6.45 -23.81,6.3 -4.74,-0.09 -10.04,0.34 -15.35,0.32 -59.89,-0.19 -116.28,-0.2 -169.17,-0.01 -13.68,0.05 -30.45,-0.24 -47.99,-0.25 -4.08,0 -10.13,-2.35 -13.8,-4.99 -11.19,-8.06 -16.47,-20.19 -14.7,-33.7 1.2,-9.14 5.98,-16.92 14.34,-23.33 8.52,-6.53 17.7,-6.58 27.97,-5.63 z"
       id="path2"
       style="fill:url(#linearGradient30)" />
    <path
       d="m 504.78,397.28 c 0.19,0.02 0.28,0.23 0.17,0.38 -10.7,14.43 -19.5,27.89 -29.3,41.14 -19.2,25.98 -35.6,49.6 -53.87,74.29 -13.32,18 -34.48,48.17 -52.19,72.43 -6.43,8.81 -12.42,17.45 -17.99,25.94 -0.08,0.13 -0.25,0.17 -0.39,0.1 l -0.02,-0.01 c -0.16,-0.09 -0.22,-0.29 -0.14,-0.45 1,-2.07 1.67,-3.67 2.01,-4.82 7.2,-24.05 15.71,-48.11 22.98,-70.96 2.26,-7.07 5.55,-15.29 7.84,-22.44 4.81,-15.01 9.33,-28.48 13.55,-40.41 1.49,-4.2 2.95,-8.68 4.37,-13.44 0.25,-0.85 0.62,-1.69 1.1,-2.51 0.3,-0.52 -0.08,-1.18 -0.68,-1.18 h -72.49 c -0.41,0 -0.7,-0.4 -0.57,-0.79 3.78,-11.09 7.89,-24.15 12.33,-39.19 4.95,-16.77 10.36,-33.1 15.49,-51.13 4.94,-17.38 10.22,-32.86 15.35,-51.05 0.06,-0.21 -0.09,-0.42 -0.31,-0.42 h -97 c -0.41,0 -0.7,-0.4 -0.57,-0.79 l 8.47,-25.72 c 0.1,-0.3 0.37,-0.51 0.69,-0.51 h 273.12 c 0.36,0 0.6,0.35 0.48,0.69 l -9.15,25.5 c -0.09,0.25 -0.33,0.42 -0.6,0.42 h -78.32 c -0.22,0 -0.43,0.13 -0.53,0.33 l -41.83,82.95 c -0.25,0.49 0.1,1.08 0.66,1.09 22.11,0.31 44.54,0.34 67.31,0.11 3.47,-0.03 6.81,0.12 10.03,0.45 z"
       id="path3"
       style="fill:url(#linearGradient21);fill-opacity:1" />
  </g>
  <g
     id="g48"
     transform="translate(-2.2930954)">
    <path
       fill="#e6bd55"
       d="m 774.82,728.13 c 0.06,0.07 0.01,0.17 -0.08,0.17 h -10.9 c -0.2,0 -0.39,-0.1 -0.5,-0.26 -5.53,-7.89 -11.57,-15.62 -18.1,-23.19 -0.17,-0.19 -0.46,-0.2 -0.64,-0.01 l -7.93,8.37 c -0.5,0.53 -0.78,1.23 -0.78,1.96 v 12.48 c 0,0.36 -0.29,0.65 -0.65,0.65 h -7.53 c -0.28,0 -0.51,-0.23 -0.51,-0.51 v -52.5 c 0,-0.66 0.54,-1.2 1.21,-1.2 h 6.56 c 0.62,0 1.12,0.5 1.12,1.12 v 27.26 c 0,0.23 0.28,0.33 0.43,0.17 l 26.23,-27.7 c 0.22,-0.23 0.52,-0.36 0.84,-0.36 h 9.89 c 0.2,0 0.3,0.24 0.16,0.39 l -21.87,23.09 c -0.07,0.07 -0.07,0.19 -0.01,0.27 z"
       id="path4"
       style="fill:url(#linearGradient43)" />
    <path
       fill="#dedede"
       d="m 126.36,697.42 c 8.88,0 13.53,0 13.95,0 0.39,0 0.71,-0.32 0.71,-0.71 v -21.63 c 0,-0.31 0.26,-0.56 0.56,-0.56 h 7.38 c 0.41,0 0.74,0.32 0.74,0.73 0.04,12.02 0.06,20.75 0.06,26.18 0,5.43 -0.02,14.16 -0.06,26.18 0,0.41 -0.33,0.74 -0.73,0.74 h -7.38 c -0.31,0 -0.56,-0.25 -0.56,-0.56 v -21.63 c 0,-0.4 -0.32,-0.71 -0.72,-0.72 -0.42,0 -5.07,0 -13.95,0 -8.88,0 -13.53,0.01 -13.94,0.01 -0.4,0 -0.72,0.32 -0.72,0.71 v 21.63 c 0,0.31 -0.25,0.56 -0.56,0.56 h -7.38 c -0.4,0 -0.73,-0.33 -0.73,-0.73 -0.05,-12.02 -0.07,-20.75 -0.07,-26.18 0,-5.44 0.02,-14.16 0.06,-26.19 0,-0.4 0.33,-0.73 0.73,-0.73 h 7.38 c 0.31,0 0.56,0.25 0.56,0.56 l 0.01,21.63 c 0,0.39 0.32,0.71 0.72,0.72 0.41,0 5.06,-0.01 13.94,-0.01 z"
       id="path5" />
    <path
       fill="#e6bd55"
       d="m 493.5,685.81 c -0.24,0.47 -0.86,0.6 -1.27,0.27 -3.92,-3.18 -8.99,-4.54 -15.22,-4.08 -3.98,0.3 -9.28,1.99 -9.99,6.23 -0.83,4.99 3.07,7.01 7.42,8.36 4.79,1.5 12.4,2.57 17.94,5.96 5.55,3.41 7.54,10 5.59,15.99 -1.2,3.69 -3.88,6.36 -8.04,8.01 -11.55,4.59 -22.79,3.38 -33.71,-3.63 -0.14,-0.1 -0.19,-0.28 -0.12,-0.44 l 3.36,-6.65 c 0.08,-0.16 0.28,-0.2 0.42,-0.1 6.65,4.91 13.75,6.84 21.32,5.81 9.31,-1.28 11.58,-10.93 1.5,-13.76 -6.6,-1.86 -11.2,-3.17 -13.8,-3.93 -7.34,-2.14 -12.87,-8.2 -11.26,-15.98 2.13,-10.25 12.2,-13.73 21.91,-13.6 6.1,0.08 11.52,1.6 16.27,4.55 0.52,0.32 0.71,0.99 0.43,1.54 z"
       id="path6"
       style="fill:url(#linearGradient40)" />
    <path
       fill="#dedede"
       d="m 633.87,729.36 c -9.68,0.03 -17.59,-4.17 -21.4,-12.65 -1.37,-3.05 -2.06,-8.28 -2.06,-15.68 0,-10.29 0.02,-18.93 0.06,-25.94 0,-0.35 0.29,-0.64 0.64,-0.64 h 7.85 c 0.28,0 0.51,0.23 0.51,0.51 0.04,15.29 0.07,25.09 0.08,29.38 0.01,3.65 0.35,6.37 1.02,8.18 2.17,5.92 7.04,9.02 13.28,9.01 6.24,-0.02 11.11,-3.14 13.25,-9.07 0.66,-1.81 0.98,-4.54 0.98,-8.18 0,-4.3 -0.02,-14.09 -0.05,-29.38 0,-0.29 0.23,-0.51 0.51,-0.52 l 7.85,-0.03 c 0.35,0 0.64,0.28 0.64,0.64 0.07,7 0.13,15.65 0.18,25.94 0.03,7.4 -0.63,12.63 -1.99,15.69 -3.78,8.49 -11.67,12.72 -21.35,12.74 z"
       id="path7" />
    <path
       fill="#dedede"
       d="m 716.8,682.77 c 0.08,0.08 0.08,0.21 0,0.29 l -4.76,5.03 c -0.2,0.21 -0.52,0.22 -0.73,0.04 -7.8,-6.69 -15.71,-8.03 -23.72,-4.04 -2.89,1.45 -5.11,3.08 -6.64,4.91 -3.93,4.68 -4.7,12.73 -3.26,18.27 1.25,4.81 4.02,8.43 8.3,10.85 9.05,5.12 17.18,4.23 24.41,-2.66 0.41,-0.39 1.06,-0.39 1.47,0 l 4,3.78 c 0.52,0.49 0.57,1.3 0.12,1.86 -2.51,3.15 -5.72,5.32 -9.63,6.53 -17.43,5.36 -37.3,-3.84 -38.63,-23.93 -0.98,-14.88 10.35,-27.94 25.13,-29.25 9.47,-0.83 17.46,1.46 23.94,8.32 z"
       id="path8" />
    <path
       fill="#e6bd55"
       d="m 72.44,728.16 c -0.61,0 -1.74,0.06 -3.4,0.19 -0.64,0.04 -1.18,-0.46 -1.18,-1.1 v -43.99 c 0,-0.5 -0.4,-0.9 -0.9,-0.9 h -16.6 c -0.34,0 -0.62,-0.28 -0.62,-0.62 v -6.26 c 0,-0.34 0.28,-0.62 0.61,-0.62 13.79,0.01 21.12,0.02 21.99,0.02 0.87,0 8.2,-0.04 21.99,-0.1 0.33,0 0.61,0.27 0.61,0.62 l 0.02,6.26 c 0.01,0.34 -0.27,0.62 -0.61,0.62 l -16.6,0.06 c -0.5,0 -0.9,0.41 -0.9,0.9 l 0.16,43.99 c 0,0.64 -0.53,1.15 -1.17,1.1 -1.66,-0.11 -2.8,-0.17 -3.4,-0.17 z"
       id="path9"
       style="fill:url(#linearGradient37)" />
    <path
       fill="#dedede"
       d="m 188.1,721.54 c 6.21,0 11.06,-3.1 13.21,-9 0.65,-1.8 0.99,-4.51 0.99,-8.14 0,-4.27 0.01,-14.02 0.01,-29.24 0,-0.28 0.23,-0.51 0.51,-0.51 l 7.81,-0.02 c 0.35,0 0.64,0.29 0.64,0.64 0.06,6.97 0.1,15.58 0.12,25.82 0.02,7.36 -0.66,12.56 -2.02,15.61 -3.77,8.44 -11.63,12.64 -21.26,12.64 -9.64,0 -17.5,-4.2 -21.28,-12.64 -1.36,-3.04 -2.03,-8.25 -2.01,-15.61 0.02,-10.24 0.06,-18.84 0.11,-25.82 0,-0.35 0.29,-0.63 0.64,-0.63 l 7.81,0.02 c 0.28,0 0.51,0.22 0.51,0.5 0.01,15.22 0.01,24.97 0.02,29.24 0,3.63 0.33,6.35 0.99,8.15 2.15,5.89 7,8.99 13.2,8.99 z"
       id="path10" />
    <path
       fill="#dedede"
       d="m 226.86,674.79 h 5.9 c 0.54,0 1.05,0.25 1.39,0.67 l 29.47,36.48 c 0.19,0.24 0.58,0.11 0.58,-0.2 v -36.11 c 0,-0.64 0.51,-1.15 1.15,-1.15 h 6.7 c 0.66,0 1.19,0.53 1.19,1.19 v 52.42 c 0,0.28 -0.22,0.5 -0.5,0.5 h -6.46 c -0.34,0 -0.66,-0.15 -0.87,-0.41 L 235.9,691.65 c -0.01,-0.01 -0.02,-0.01 -0.03,0 -0.02,0 -0.02,0.02 -0.01,0.03 0.06,0.09 -0.02,0.02 -0.25,-0.21 -0.12,-0.12 -0.32,-0.04 -0.32,0.13 v 36.36 c 0,0.11 -0.09,0.2 -0.2,0.2 h -8.46 c -0.22,0 -0.39,-0.17 -0.39,-0.38 v -52.36 c 0,-0.35 0.28,-0.63 0.62,-0.63 z"
       id="path11" />
    <path
       fill="#dedede"
       d="m 361.9,720.92 h 29.63 c 0.38,0 0.69,0.31 0.69,0.69 v 6.21 c 0,0.38 -0.31,0.69 -0.69,0.69 h -38.58 c -0.38,0 -0.69,-0.31 -0.69,-0.69 v -52.34 c 0,-0.38 0.31,-0.69 0.69,-0.69 h 37.42 c 0.38,0 0.69,0.31 0.69,0.69 v 6.08 c 0,0.38 -0.31,0.69 -0.69,0.69 h -28.24 c -0.38,0 -0.69,0.31 -0.69,0.69 v 13.84 c 0,0.38 0.31,0.69 0.69,0.69 h 25.33 c 0.38,0 0.69,0.31 0.69,0.69 v 6.25 c 0,0.38 -0.31,0.69 -0.69,0.69 H 361.9 c -0.38,0 -0.69,0.31 -0.69,0.69 v 14.44 c 0,0.38 0.31,0.69 0.69,0.69 z"
       id="path13" />
    <path
       fill="#dedede"
       d="m 523.8,674.75 c 7.35,0.02 14.65,-0.01 21.89,-0.08 0.55,-0.01 0.99,0.43 0.99,0.98 v 5.79 c 0,0.53 -0.43,0.96 -0.96,0.96 h -16.44 c -0.4,0 -0.73,0.32 -0.73,0.72 l -0.06,44.76 c 0,0.18 -0.13,0.33 -0.31,0.36 -0.21,0.03 -1.59,0.06 -4.14,0.07 -2.55,0.01 -3.93,0 -4.13,-0.03 -0.18,-0.03 -0.32,-0.18 -0.32,-0.36 l -0.47,-44.76 c 0,-0.39 -0.33,-0.71 -0.74,-0.71 l -16.43,0.15 c -0.53,0.01 -0.97,-0.42 -0.97,-0.95 l -0.06,-5.79 c 0,-0.55 0.44,-0.99 0.99,-0.99 7.24,0.01 14.53,-0.03 21.89,-0.12 z"
       id="path15" />
    <g
       id="g46">
      <path
         fill="#dedede"
         d="m 599.9,728.44 c 0.05,0.07 0,0.16 -0.08,0.16 h -9.79 c -0.14,0 -0.28,-0.07 -0.35,-0.19 L 579.6,713.13 c -0.47,-0.71 -1.26,-1.13 -2.1,-1.13 h -13.07 c -0.33,0 -0.59,0.26 -0.59,0.59 v 15.36 c 0,0.16 -0.13,0.29 -0.3,0.29 h -8.62 c -0.17,0 -0.3,-0.13 -0.3,-0.3 v -52.35 c 0,-0.4 0.32,-0.72 0.72,-0.74 8.37,-0.25 16.25,-0.23 23.63,0.07 10.98,0.45 20.28,7.31 19.89,19.15 -0.21,6.13 -2.9,11.13 -8.08,15 -0.23,0.17 -0.47,0.3 -0.74,0.4 l -1.79,0.64 c -0.5,0.18 -0.69,0.79 -0.39,1.22 z"
         id="path16" />
      <path
         fill="#1d2239"
         d="m 563.9,682.95 c 0,-0.34 0.28,-0.62 0.62,-0.62 h 13 c 6.85,0 12.4,4.68 12.4,10.45 v 1.32 c 0,5.77 -5.55,10.45 -12.4,10.45 h -13 c -0.34,0 -0.62,-0.28 -0.62,-0.62 z"
         id="path17" />
    </g>
    <g
       id="g44">
      <path
         fill="#dedede"
         d="m 288.74,675.14 c 0,-0.14 0.12,-0.26 0.26,-0.26 l 24.26,0.08 c 15.36,0.06 27.76,11.96 27.71,26.58 v 0.52 c -0.05,14.63 -12.54,26.44 -27.89,26.38 l -24.26,-0.08 c -0.15,0 -0.26,-0.12 -0.26,-0.26 z"
         id="path12" />
      <path
         fill="#1d2239"
         d="m 297.79,683.36 c 0,-0.42 0.35,-0.77 0.77,-0.76 l 13.83,0.09 c 10.75,0.08 19.4,8.67 19.33,19.2 v 0.18 c -0.07,10.53 -8.85,19 -19.59,18.92 L 298.3,720.9 c -0.43,-0.01 -0.77,-0.35 -0.77,-0.78 z"
         id="path18" />
    </g>
    <g
       id="g45">
      <path
         fill="#dedede"
         d="m 449.26,728.33 c 0.05,0.07 0,0.17 -0.09,0.17 h -9.59 c -0.17,0 -0.33,-0.08 -0.43,-0.22 L 428.1,712.57 c -0.22,-0.31 -0.58,-0.5 -0.96,-0.5 h -12.98 c -0.5,0 -0.9,0.4 -0.9,0.9 v 14.98 c 0,0.19 -0.16,0.35 -0.35,0.35 h -8.24 c -0.17,0 -0.31,-0.14 -0.31,-0.32 v -52.52 c 0,-0.29 0.24,-0.53 0.53,-0.54 10.26,-0.16 18.28,-0.18 24.06,-0.05 2.85,0.06 6.39,1.17 10.6,3.33 4.96,2.54 8.12,7.48 8.52,13.23 0.59,8.47 -2.69,14.84 -9.86,19.13 -0.56,0.33 -0.71,1.06 -0.34,1.59 z"
         id="path14" />
      <path
         fill="#1d2239"
         d="m 413,683.56 c 0,-0.57 0.46,-1.04 1.03,-1.05 l 13.58,-0.09 c 6.38,-0.04 11.58,4.79 11.62,10.8 v 0.6 c 0.04,6.01 -5.09,10.91 -11.46,10.96 l -13.58,0.09 c -0.58,0.01 -1.04,-0.45 -1.05,-1.03 z"
         id="path19" />
    </g>
  </g>
</svg>
