<?xml version="1.0" encoding="UTF-8" standalone="no"?>
<svg
   version="1.1"
   viewBox="0 0 725.1062 55.270161"
   id="svg19"
   sodipodi:docname="textlogo_transparent.svg"
   inkscape:export-filename="logo.png"
   inkscape:export-xdpi="119.88"
   inkscape:export-ydpi="119.88"
   inkscape:version="1.4.2 (ebf0e940, 2025-05-08)"
   width="725.1062"
   height="55.270161"
   xmlns:inkscape="http://www.inkscape.org/namespaces/inkscape"
   xmlns:sodipodi="http://sodipodi.sourceforge.net/DTD/sodipodi-0.dtd"
   xmlns:xlink="http://www.w3.org/1999/xlink"
   xmlns="http://www.w3.org/2000/svg"
   xmlns:svg="http://www.w3.org/2000/svg">
  <defs
     id="defs19">
    <linearGradient
       id="linearGradient41"
       inkscape:collect="always">
      <stop
         style="stop-color:#e7ca7d;stop-opacity:1;"
         offset="0"
         id="stop42" />
      <stop
         style="stop-color:#e0c070;stop-opacity:1;"
         offset="0.5"
         id="stop44" />
      <stop
         style="stop-color:#cea956;stop-opacity:1;"
         offset="1"
         id="stop43" />
    </linearGradient>
    <linearGradient
       id="linearGradient38"
       inkscape:collect="always">
      <stop
         style="stop-color:#e7ca7d;stop-opacity:1;"
         offset="0"
         id="stop39" />
      <stop
         style="stop-color:#e0c070;stop-opacity:1;"
         offset="0.50091547"
         id="stop41" />
      <stop
         style="stop-color:#cea956;stop-opacity:1;"
         offset="1"
         id="stop40" />
    </linearGradient>
    <linearGradient
       id="linearGradient35"
       inkscape:collect="always">
      <stop
         style="stop-color:#e7ca7d;stop-opacity:1;"
         offset="0.0001"
         id="stop36" />
      <stop
         style="stop-color:#e0c070;stop-opacity:1;"
         offset="0.49094743"
         id="stop38" />
      <stop
         style="stop-color:#cea956;stop-opacity:1;"
         offset="0.99362838"
         id="stop37" />
    </linearGradient>
    <linearGradient
       id="linearGradient20"
       inkscape:label="Top">
      <stop
         style="stop-color:#e6bd55;stop-opacity:1;"
         offset="0"
         id="stop22" />
      <stop
         style="stop-color:#e6bd55;stop-opacity:0;"
         offset="1"
         id="stop23" />
    </linearGradient>
    <linearGradient
       id="linearGradient20-1"
       inkscape:label="Bottom">
      <stop
         style="stop-color:#f4d07a;stop-opacity:1;"
         offset="0.09327219"
         id="stop20" />
      <stop
         style="stop-color:#eacc71;stop-opacity:1;"
         offset="0.20496127"
         id="stop27" />
      <stop
         style="stop-color:#e3c86a;stop-opacity:1;"
         offset="0.34755325"
         id="stop25" />
      <stop
         style="stop-color:#dcb85f;stop-opacity:1;"
         offset="0.52404028"
         id="stop26" />
      <stop
         style="stop-color:#d4ac54;stop-opacity:1;"
         offset="0.76197016"
         id="stop28" />
      <stop
         style="stop-color:#d59a20;stop-opacity:1;"
         offset="0.98805493"
         id="stop24" />
    </linearGradient>
    <linearGradient
       inkscape:collect="always"
       xlink:href="#linearGradient35"
       id="linearGradient37"
       x1="72.146088"
       y1="674.46631"
       x2="72.146088"
       y2="727.84973"
       gradientUnits="userSpaceOnUse"
       gradientTransform="translate(-2.2930954)" />
    <linearGradient
       inkscape:collect="always"
       xlink:href="#linearGradient38"
       id="linearGradient40"
       x1="477.38416"
       y1="670.27539"
       x2="477.38416"
       y2="729.19373"
       gradientUnits="userSpaceOnUse"
       gradientTransform="translate(-2.2930954)" />
    <linearGradient
       inkscape:collect="always"
       xlink:href="#linearGradient41"
       id="linearGradient43"
       x1="751.02307"
       y1="672.78534"
       x2="751.02307"
       y2="729.03131"
       gradientUnits="userSpaceOnUse"
       gradientTransform="translate(-2.2930954)" />
  </defs>
  <sodipodi:namedview
     id="namedview19"
     pagecolor="#ffffff"
     bordercolor="#000000"
     borderopacity="0.25"
     inkscape:showpageshadow="2"
     inkscape:pageopacity="0.0"
     inkscape:pagecheckerboard="0"
     inkscape:deskcolor="#d1d1d1"
     inkscape:zoom="0.6347273"
     inkscape:cx="237.89744"
     inkscape:cy="34.660554"
     inkscape:window-width="1312"
     inkscape:window-height="725"
     inkscape:window-x="0"
     inkscape:window-y="24"
     inkscape:window-maximized="0"
     inkscape:current-layer="svg19" />
  <g
     id="g1"
     transform="translate(-47.446905,-674.09)">
    <path
       fill="#e6bd55"
       d="m 772.5269,728.13 c 0.06,0.07 0.01,0.17 -0.08,0.17 h -10.9 c -0.2,0 -0.39,-0.1 -0.5,-0.26 -5.53,-7.89 -11.57,-15.62 -18.1,-23.19 -0.17,-0.19 -0.46,-0.2 -0.64,-0.01 l -7.93,8.37 c -0.5,0.53 -0.78,1.23 -0.78,1.96 v 12.48 c 0,0.36 -0.29,0.65 -0.65,0.65 h -7.53 c -0.28,0 -0.51,-0.23 -0.51,-0.51 v -52.5 c 0,-0.66 0.54,-1.2 1.21,-1.2 h 6.56 c 0.62,0 1.12,0.5 1.12,1.12 v 27.26 c 0,0.23 0.28,0.33 0.43,0.17 l 26.23,-27.7 c 0.22,-0.23 0.52,-0.36 0.84,-0.36 h 9.89 c 0.2,0 0.3,0.24 0.16,0.39 l -21.87,23.09 c -0.07,0.07 -0.07,0.19 -0.01,0.27 z"
       id="path4"
       style="fill:url(#linearGradient43)" />
    <path
       fill="#dedede"
       d="m 124.0669,697.42 c 8.88,0 13.53,0 13.95,0 0.39,0 0.71,-0.32 0.71,-0.71 v -21.63 c 0,-0.31 0.26,-0.56 0.56,-0.56 h 7.38 c 0.41,0 0.74,0.32 0.74,0.73 0.04,12.02 0.06,20.75 0.06,26.18 0,5.43 -0.02,14.16 -0.06,26.18 0,0.41 -0.33,0.74 -0.73,0.74 h -7.38 c -0.31,0 -0.56,-0.25 -0.56,-0.56 v -21.63 c 0,-0.4 -0.32,-0.71 -0.72,-0.72 -0.42,0 -5.07,0 -13.95,0 -8.88,0 -13.53,0.01 -13.94,0.01 -0.4,0 -0.72,0.32 -0.72,0.71 v 21.63 c 0,0.31 -0.25,0.56 -0.56,0.56 h -7.38 c -0.4,0 -0.73,-0.33 -0.73,-0.73 -0.05,-12.02 -0.07,-20.75 -0.07,-26.18 0,-5.44 0.02,-14.16 0.06,-26.19 0,-0.4 0.33,-0.73 0.73,-0.73 h 7.38 c 0.31,0 0.56,0.25 0.56,0.56 l 0.01,21.63 c 0,0.39 0.32,0.71 0.72,0.72 0.41,0 5.06,-0.01 13.94,-0.01 z"
       id="path5" />
    <path
       fill="#e6bd55"
       d="m 491.2069,685.81 c -0.24,0.47 -0.86,0.6 -1.27,0.27 -3.92,-3.18 -8.99,-4.54 -15.22,-4.08 -3.98,0.3 -9.28,1.99 -9.99,6.23 -0.83,4.99 3.07,7.01 7.42,8.36 4.79,1.5 12.4,2.57 17.94,5.96 5.55,3.41 7.54,10 5.59,15.99 -1.2,3.69 -3.88,6.36 -8.04,8.01 -11.55,4.59 -22.79,3.38 -33.71,-3.63 -0.14,-0.1 -0.19,-0.28 -0.12,-0.44 l 3.36,-6.65 c 0.08,-0.16 0.28,-0.2 0.42,-0.1 6.65,4.91 13.75,6.84 21.32,5.81 9.31,-1.28 11.58,-10.93 1.5,-13.76 -6.6,-1.86 -11.2,-3.17 -13.8,-3.93 -7.34,-2.14 -12.87,-8.2 -11.26,-15.98 2.13,-10.25 12.2,-13.73 21.91,-13.6 6.1,0.08 11.52,1.6 16.27,4.55 0.52,0.32 0.71,0.99 0.43,1.54 z"
       id="path6"
       style="fill:url(#linearGradient40)" />
    <path
       fill="#dedede"
       d="m 631.5769,729.36 c -9.68,0.03 -17.59,-4.17 -21.4,-12.65 -1.37,-3.05 -2.06,-8.28 -2.06,-15.68 0,-10.29 0.02,-18.93 0.06,-25.94 0,-0.35 0.29,-0.64 0.64,-0.64 h 7.85 c 0.28,0 0.51,0.23 0.51,0.51 0.04,15.29 0.07,25.09 0.08,29.38 0.01,3.65 0.35,6.37 1.02,8.18 2.17,5.92 7.04,9.02 13.28,9.01 6.24,-0.02 11.11,-3.14 13.25,-9.07 0.66,-1.81 0.98,-4.54 0.98,-8.18 0,-4.3 -0.02,-14.09 -0.05,-29.38 0,-0.29 0.23,-0.51 0.51,-0.52 l 7.85,-0.03 c 0.35,0 0.64,0.28 0.64,0.64 0.07,7 0.13,15.65 0.18,25.94 0.03,7.4 -0.63,12.63 -1.99,15.69 -3.78,8.49 -11.67,12.72 -21.35,12.74 z"
       id="path7" />
    <path
       fill="#dedede"
       d="m 714.5069,682.77 c 0.08,0.08 0.08,0.21 0,0.29 l -4.76,5.03 c -0.2,0.21 -0.52,0.22 -0.73,0.04 -7.8,-6.69 -15.71,-8.03 -23.72,-4.04 -2.89,1.45 -5.11,3.08 -6.64,4.91 -3.93,4.68 -4.7,12.73 -3.26,18.27 1.25,4.81 4.02,8.43 8.3,10.85 9.05,5.12 17.18,4.23 24.41,-2.66 0.41,-0.39 1.06,-0.39 1.47,0 l 4,3.78 c 0.52,0.49 0.57,1.3 0.12,1.86 -2.51,3.15 -5.72,5.32 -9.63,6.53 -17.43,5.36 -37.3,-3.84 -38.63,-23.93 -0.98,-14.88 10.35,-27.94 25.13,-29.25 9.47,-0.83 17.46,1.46 23.94,8.32 z"
       id="path8" />
    <path
       fill="#e6bd55"
       d="m 70.146905,728.16 c -0.61,0 -1.74,0.06 -3.4,0.19 -0.64,0.04 -1.18,-0.46 -1.18,-1.1 v -43.99 c 0,-0.5 -0.4,-0.9 -0.9,-0.9 h -16.6 c -0.34,0 -0.62,-0.28 -0.62,-0.62 v -6.26 c 0,-0.34 0.28,-0.62 0.61,-0.62 13.79,0.01 21.12,0.02 21.99,0.02 0.87,0 8.2,-0.04 21.99,-0.1 0.33,0 0.61,0.27 0.61,0.62 l 0.02,6.26 c 0.01,0.34 -0.27,0.62 -0.61,0.62 l -16.6,0.06 c -0.5,0 -0.9,0.41 -0.9,0.9 l 0.16,43.99 c 0,0.64 -0.53,1.15 -1.17,1.1 -1.66,-0.11 -2.8,-0.17 -3.4,-0.17 z"
       id="path9"
       style="fill:url(#linearGradient37)" />
    <path
       fill="#dedede"
       d="m 185.8069,721.54 c 6.21,0 11.06,-3.1 13.21,-9 0.65,-1.8 0.99,-4.51 0.99,-8.14 0,-4.27 0.01,-14.02 0.01,-29.24 0,-0.28 0.23,-0.51 0.51,-0.51 l 7.81,-0.02 c 0.35,0 0.64,0.29 0.64,0.64 0.06,6.97 0.1,15.58 0.12,25.82 0.02,7.36 -0.66,12.56 -2.02,15.61 -3.77,8.44 -11.63,12.64 -21.26,12.64 -9.64,0 -17.5,-4.2 -21.28,-12.64 -1.36,-3.04 -2.03,-8.25 -2.01,-15.61 0.02,-10.24 0.06,-18.84 0.11,-25.82 0,-0.35 0.29,-0.63 0.64,-0.63 l 7.81,0.02 c 0.28,0 0.51,0.22 0.51,0.5 0.01,15.22 0.01,24.97 0.02,29.24 0,3.63 0.33,6.35 0.99,8.15 2.15,5.89 7,8.99 13.2,8.99 z"
       id="path10" />
    <path
       fill="#dedede"
       d="m 224.5669,674.79 h 5.9 c 0.54,0 1.05,0.25 1.39,0.67 l 29.47,36.48 c 0.19,0.24 0.58,0.11 0.58,-0.2 v -36.11 c 0,-0.64 0.51,-1.15 1.15,-1.15 h 6.7 c 0.66,0 1.19,0.53 1.19,1.19 v 52.42 c 0,0.28 -0.22,0.5 -0.5,0.5 h -6.46 c -0.34,0 -0.66,-0.15 -0.87,-0.41 l -29.51,-36.53 c -0.01,-0.01 -0.02,-0.01 -0.03,0 -0.02,0 -0.02,0.02 -0.01,0.03 0.06,0.09 -0.02,0.02 -0.25,-0.21 -0.12,-0.12 -0.32,-0.04 -0.32,0.13 v 36.36 c 0,0.11 -0.09,0.2 -0.2,0.2 h -8.46 c -0.22,0 -0.39,-0.17 -0.39,-0.38 v -52.36 c 0,-0.35 0.28,-0.63 0.62,-0.63 z"
       id="path11" />
    <path
       fill="#dedede"
       d="m 359.6069,720.92 h 29.63 c 0.38,0 0.69,0.31 0.69,0.69 v 6.21 c 0,0.38 -0.31,0.69 -0.69,0.69 h -38.58 c -0.38,0 -0.69,-0.31 -0.69,-0.69 v -52.34 c 0,-0.38 0.31,-0.69 0.69,-0.69 h 37.42 c 0.38,0 0.69,0.31 0.69,0.69 v 6.08 c 0,0.38 -0.31,0.69 -0.69,0.69 h -28.24 c -0.38,0 -0.69,0.31 -0.69,0.69 v 13.84 c 0,0.38 0.31,0.69 0.69,0.69 h 25.33 c 0.38,0 0.69,0.31 0.69,0.69 v 6.25 c 0,0.38 -0.31,0.69 -0.69,0.69 h -25.56 c -0.38,0 -0.69,0.31 -0.69,0.69 v 14.44 c 0,0.38 0.31,0.69 0.69,0.69 z"
       id="path13" />
    <path
       fill="#dedede"
       d="m 521.5069,674.75 c 7.35,0.02 14.65,-0.01 21.89,-0.08 0.55,-0.01 0.99,0.43 0.99,0.98 v 5.79 c 0,0.53 -0.43,0.96 -0.96,0.96 h -16.44 c -0.4,0 -0.73,0.32 -0.73,0.72 l -0.06,44.76 c 0,0.18 -0.13,0.33 -0.31,0.36 -0.21,0.03 -1.59,0.06 -4.14,0.07 -2.55,0.01 -3.93,0 -4.13,-0.03 -0.18,-0.03 -0.32,-0.18 -0.32,-0.36 l -0.47,-44.76 c 0,-0.39 -0.33,-0.71 -0.74,-0.71 l -16.43,0.15 c -0.53,0.01 -0.97,-0.42 -0.97,-0.95 l -0.06,-5.79 c 0,-0.55 0.44,-0.99 0.99,-0.99 7.24,0.01 14.53,-0.03 21.89,-0.12 z"
       id="path15" />
    <path
       id="path16"
       d="m 553.04688,674.84961 c -0.40001,0.02 -0.72071,0.34023 -0.72071,0.74023 v 52.34961 c 0,0.17 0.13078,0.30078 0.30078,0.30078 h 8.61914 c 0.17,0 0.30079,-0.13101 0.30079,-0.29101 v -15.35938 c -10e-6,-0.33 0.25984,-0.58984 0.58984,-0.58984 h 13.07031 c 0.84,0 1.62961,0.42086 2.09961,1.13086 l 10.08008,15.2793 c 0.07,0.12 0.20961,0.18945 0.34961,0.18945 h 9.79101 c 0.08,0 0.13008,-0.0902 0.0801,-0.16016 l -12.04101,-17.10937 c -0.3,-0.43 -0.10938,-1.04071 0.39062,-1.2207 l 1.78906,-0.63868 c 0.27,-0.1 0.51024,-0.23039 0.74024,-0.40039 5.18,-3.87 7.87008,-8.87 8.08008,-15 0.39,-11.84 -8.90868,-18.70039 -19.88868,-19.15039 -7.38,-0.3 -15.26085,-0.32031 -23.63085,-0.0703 z m 9.17968,7.48047 h 13 c 6.85,0 12.40039,4.67922 12.40039,10.44922 v 1.32031 c 0,5.77 -5.55039,10.45117 -12.40039,10.45117 h -13 c -0.34,0 -0.61914,-0.28109 -0.61914,-0.62109 v -20.98047 c 0,-0.34 0.27914,-0.61914 0.61914,-0.61914 z"
       style="fill:#dedede;fill-opacity:1" />
    <path
       id="path12"
       d="m 286.68164,674.88086 c -0.12854,0.0137 -0.23437,0.12851 -0.23437,0.25976 l -0.17969,52.95899 c 0,0.14 0.10976,0.25977 0.25976,0.25977 l 24.25977,0.0801 c 15.35,0.06 27.84062,-11.7489 27.89062,-26.3789 v -0.52149 c 0.05,-14.62 -12.35093,-26.51812 -27.71093,-26.57812 l -24.25977,-0.0801 c -0.009,0 -0.0168,-9.1e-4 -0.0254,0 z m 9.58594,7.71875 13.83008,0.0898 c 10.75,0.08 19.40007,8.67118 19.33007,19.20117 v 0.17969 c -0.07,10.53 -8.85179,18.99992 -19.59179,18.91992 l -13.82813,-0.0898 c -0.43,-0.01 -0.77148,-0.35125 -0.77148,-0.78125 l 0.25976,-36.75976 c 0,-0.42 0.35149,-0.76977 0.77149,-0.75977 z"
       style="fill:#dedede;fill-opacity:1" />
    <path
       id="path14"
       d="m 426.65625,674.86914 c -5.78,-0.13 -13.79859,-0.10922 -24.05859,0.0508 -0.29,0.01 -0.53125,0.25102 -0.53125,0.54102 v 52.51953 c 0,0.18 0.14054,0.32031 0.31054,0.32031 h 8.24024 c 0.19,0 0.34961,-0.16156 0.34961,-0.35156 V 712.9707 c 0,-0.5 0.40039,-0.90039 0.90039,-0.90039 h 12.98047 c 0.38,0 0.73898,0.19 0.95898,0.5 l 11.05078,15.70899 c 0.1,0.14 0.25969,0.2207 0.42969,0.2207 h 9.58984 c 0.09,0 0.13985,-0.0999 0.0898,-0.16992 l -11.39063,-16.17969 c -0.37,-0.53 -0.22015,-1.25984 0.33985,-1.58984 7.17,-4.29 10.45132,-10.66086 9.86132,-19.13086 -0.4,-5.75 -3.55953,-10.69047 -8.51953,-13.23047 -4.21,-2.16 -7.75156,-3.27008 -10.60156,-3.33008 z m -1.33984,7.55078 c 6.38,-0.04 11.58109,4.79078 11.62109,10.80078 v 0.59961 c 0.04,6.01 -5.09094,10.90899 -11.46094,10.95899 l -13.58008,0.0898 c -0.58,0.01 -1.03882,-0.4493 -1.04882,-1.0293 l -0.14063,-20.27929 c 0,-0.57 0.4593,-1.04078 1.0293,-1.05078 z"
       style="fill:#dedede;fill-opacity:1" />
  </g>
</svg>
